<svg version="1.2" xmlns="http://www.w3.org/2000/svg" viewBox="0 0 1024 1024" width="1024" height="1024">
	<style>
		.s0 { fill: #010000 } 
		.s1 { fill: #ffffff } 
	</style>
	<filter id="f0">
		<feFlood flood-color="#8b0000" flood-opacity="1" />
		<feBlend mode="normal" in2="SourceGraphic"/>
		<feComposite in2="SourceAlpha" operator="in" />
	</filter>
	<g id="g1" filter="url(#f0)">
		<path id="path1" class="s0" d="m589.13 962.95c-1.86-0.82-6.42-4.41-10.08-8-12.69-12.25-19.04-16.2-37.94-23.59-20.76-8.15-23.37-8.67-48.99-9.64-19.57-0.68-22.33-0.6-26.29 0.44-5.53 1.57-12.84 1.65-15.61 0.15-4.7-2.39-5.6-9.03-3.14-23.67 0.82-4.63 2.17-15.46 3.06-24.12 0.9-8.59 1.72-15.91 1.94-16.13 0.15-0.23 0.6-7.32 1.05-15.69 0.45-8.36 1.27-18.74 1.87-23.08 0.52-4.33 1.19-14.41 1.49-22.4 0.22-7.99 1.27-25.32 2.24-38.46 2.54-33.09 4.04-63.86 7.84-155.35 0.38-9.41 1.05-25.24 1.42-35.1 2.32-53.92 4.86-138.47 4.18-139.14-0.96-0.97-47.49 3.74-57.88 5.91-3.88 0.82-13.29 2.46-20.91 3.66-15.31 2.46-20.46 3.58-41.82 8.59-7.99 1.86-19.42 4.48-25.39 5.67-19.64 4.11-24.2 5.6-33.99 11.13-4.92 2.76-12.62 6.87-17.17 9.03-7.62 3.67-8.66 3.96-14.79 4.26l-6.5 0.3-2.61-2.61c-2.47-2.46-2.62-2.84-2.62-7.77 0-4.63 0.31-5.6 2.32-8.52 9.56-13.74 13.14-21.06 17.48-35.69 5.22-17.63 6.94-29.35 5.6-38.91-1.5-11.13-4.18-17.7-10.83-26.82-2.62-3.51-2.69-10.23-0.15-13.14 2.76-3.29 6.94-3.29 16.13-0.07 10.45 3.58 14.19 4.18 32.48 4.93 9.49 0.44 19.35 1.27 24.72 2.24 4.93 0.82 15.54 1.86 23.53 2.24 7.99 0.44 18.74 1.42 23.9 2.24 11.05 1.64 47.35 2.54 73.71 1.79l16.28-0.52-0.52-20.61c-0.6-24.35-1.94-60.72-2.61-69.24l-0.45-6.04-9.41 1.64c-13.29 2.39-32.86 7.47-58.33 15.09-20.09 6.05-30.62 10.38-47.87 19.79-9.03 4.93-9.55 5.08-14.56 5.08-2.84 0-5.67-0.45-6.35-0.97-5.23-4.04-3.36-14.57 5.98-32.94 6.72-13.22 10.9-24.34 12.1-31.96 1.34-8.59 0.44-22.18-2.62-38.69-3.36-18.37-3.43-21.73-0.52-24.71 3.14-3.06 7.02-2.92 16.73 0.74 14.12 5.3 17.33 5.98 47.95 9.71 19.94 2.47 43.69 4.18 47.8 3.36 3.14-0.59 3.06 0.15 1.12-14.34-4.63-33.08-14.12-73.94-20.99-89.99-3.43-8.22-2.68-15.46 1.94-17.55 3.14-1.43 8.59-1.05 16.88 1.27 16.21 4.55 39.73 7.99 48.85 7.16 12.76-1.19 27.48-3.43 30.92-4.78 2.09-0.74 9.26-4.63 15.98-8.59l12.17-7.16h5.46c4.92 0 5.52 0.15 7.24 2.01 1.8 1.94 1.94 2.55 1.65 7.69-0.23 5.01-0.53 6.2-3.37 10.83-1.64 2.92-3.58 6.95-4.18 8.97-2.16 6.94-8.66 30.62-9.11 33.23-0.3 1.42-2.17 9.71-4.11 18.3-3.88 16.65-5.37 24.72-6.65 36.22-0.44 3.89-1.04 8.37-1.19 10.01l-0.44 2.84 8.06-0.53c4.41-0.22 14.49-1.27 22.26-2.24 7.84-0.97 16.2-1.94 18.67-2.24 9.93-1.12 25.46-6.27 50.34-16.58 8.66-3.58 10.83-4.18 16.05-4.48 5.3-0.3 6.42-0.07 9.04 1.42 4.18 2.47 5.53 6.35 4.26 12.25-0.9 4.41-7.92 19.72-12.48 27.19-2.98 4.85-4.25 9.49-6.04 20.98-1.2 7.85-1.2 8.59 0 14.34 0.74 3.37 3.58 12.18 6.27 19.57 4.04 11.21 4.93 14.42 5.23 19.27 0.3 5.3 0.15 6.05-1.42 7.69-1.42 1.5-2.39 1.8-6.42 1.8-4.04 0-6.28-0.6-14.64-4.04-10.68-4.33-27.19-9.86-36.82-12.32-12.99-3.29-48.39-8.29-58.85-8.29h-4.03l-0.45 23.75c-0.22 13-0.82 28.9-1.19 35.25-0.45 6.35-0.75 18.15-0.75 26.29v14.64l5.45 0.52c2.92 0.3 7.4 0.53 9.86 0.6 9.04 0.3 36.07-1.12 43.32-2.24 4.11-0.6 13.67-1.42 21.29-1.72 12.62-0.6 23.67-1.94 56.38-7.02 4.11-0.68 9.34-1.19 11.65-1.19 4.48 0 17.55-3.67 32.04-8.97 10.53-3.8 20.69-6.72 23.68-6.72 3.36 0 7.39 1.8 8.36 3.59 1.94 3.58 0.97 10.01-3.28 22.25-4.79 13.89-5.53 19.2-5.76 38.84-0.15 12.54 0 13.96 2.24 23.45 1.28 5.53 3.22 15.98 4.34 23.15 1.27 8.22 2.76 15.24 4.1 18.9 2.32 6.27 2.62 9.4 1.35 13.07-1.12 3.36-3.59 4.63-8.89 4.63-5.45 0-8.66-1.5-18.6-8.59-12.55-9.04-20.84-13-37.04-17.62-27.34-7.77-59.38-15.99-71.33-18.3-29.8-5.6-29.5-5.6-55.64-5.53-13.07 0-23.97 0.22-24.12 0.37-0.22 0.15 0.07 13.37 0.52 29.28 0.53 15.98 1.05 39.06 1.2 51.38 0.22 12.32 0.67 27.48 1.12 33.61 0.37 6.2 0.74 17.48 0.74 25.24 0 7.69 0.31 22.33 0.75 32.49 0.37 10.15 1.05 27.71 1.49 38.99 2.09 57.8 5.01 100.45 8.97 131.66 0.82 6.5 2.17 19.27 2.98 28.38 0.82 9.12 2.69 26.07 4.11 37.72 2.32 18.67 2.99 22.1 5.6 30.25 1.72 5 4.26 13.66 5.68 19.19 3.14 12.17 9.41 33.24 11.5 38.62 0.82 2.16 3.66 8.58 6.35 14.34 4.33 9.26 4.85 10.9 4.85 15.01 0 4.25-0.22 4.85-2.54 7.16-2.24 2.24-2.99 2.54-6.5 2.54-2.39 0-5.37-0.67-7.31-1.56z"/>
		<path id="path3" class="s0" d="m592.38 960.2c-1.87-0.98-7.7-5.57-12.95-10.2-12.14-10.72-16.61-13.51-32.09-19.99-23.88-10.01-25.22-10.24-62.03-10.53-36.2-0.28-36.36-0.32-36.28-7.91 0.02-2.21 1.12-12.37 2.45-22.56 3.16-24.38 6.55-65.14 8.51-102.29 0.66-12.5 1.46-25.15 1.79-28.11 1.84-16.74 8.81-171.7 11.3-251.23 0.67-21.38 1.5-47.76 1.84-58.62 0.34-10.85 0.14-20.48-0.45-21.4-2.84-4.4-72.35 5.09-126.93 17.34-45.22 10.14-46.68 10.59-63.73 19.52-8.7 4.55-18.18 8.9-21.05 9.66-4.77 1.25-5.46 1.14-8.07-1.32-4.1-3.85-3.58-7.05 2.75-16.84 6.9-10.67 11.22-20.77 15.49-36.3 2.83-10.27 3.29-14.18 3.3-28.08 0.01-17.94-0.92-21.69-8.39-33.85-4.07-6.63-4.17-7.05-2.33-9.87 1.06-1.61 2.18-2.94 2.48-2.94 0.31 0 5.18 1.34 10.83 2.98 7.49 2.17 15.52 3.32 29.63 4.24 10.64 0.69 22.58 1.74 26.53 2.33 3.94 0.58 12.02 1.41 17.94 1.83 5.92 0.42 18.42 1.53 27.78 2.47 10.97 1.1 31.05 1.71 56.53 1.71h39.51l-0.02-3.89c-0.03-7.98-2.3-70.21-3.06-83.89l-0.79-14.21-7.72 0.79c-10.21 1.04-50.63 11.23-71.6 18.04-9.19 2.99-24.96 9.42-35.05 14.31-20.36 9.85-23.2 10.22-23.91 3.08-0.44-4.49 0.12-6.06 9.44-26.44 3.79-8.28 7.74-17.93 8.78-21.46 2.51-8.44 2.47-27.73-0.08-44.09-2.65-17.03-2.75-25.23-0.31-26.79 1.37-0.88 5.12-0.2 13.76 2.51 6.52 2.04 14.29 4.24 17.25 4.88 9.3 2.02 48.94 6.17 66.09 6.92l16.45 0.73-0.01-6.47c-0.02-19.3-13.05-81.27-21.71-103.23-1.29-3.28-2.04-7.2-1.66-8.7 1.28-5.1 4.01-5.33 19.73-1.62 20.36 4.81 35.21 6.48 49.65 5.6 21.42-1.31 29.1-3.39 44.85-12.12 7.75-4.3 15.16-7.82 16.47-7.82 2.74 0 6.33 3.53 6.33 6.21 0 1.01-1.61 4.84-3.57 8.52-8.43 15.8-25.14 88.76-25.14 109.76v5.64l8.07-0.54c18.61-1.22 50.81-5.4 58.87-7.63 4.76-1.32 17.54-5.88 28.4-10.14 20.27-7.95 23.75-8.73 28.26-6.36 6.24 3.28 5.91 5.69-3.33 24.68-13.54 27.82-14.44 39.04-5.35 66.78 9.19 28.03 8.68 28.68-15.82 19.88-9.43-3.38-21.8-7.49-27.49-9.11-13.83-3.96-40.21-7.95-57.95-8.77l-14.46-0.66-1.54 48.32c-0.84 26.57-1.33 50.19-1.09 52.49 0.42 4.01 0.69 4.22 6.42 5.14 6.6 1.06 37.85 0.17 55.63-1.59 6.25-0.62 18.48-1.65 27.19-2.3 14.28-1.06 46.99-5.2 67.32-8.5 4.27-0.7 16.97-4.28 28.21-7.95 29.43-9.62 30.83-8.81 23.73 13.7-4.29 13.6-4.46 14.8-4.99 35.8-0.48 18.78-0.22 23.31 1.92 33.49 1.36 6.48 3.33 16.62 4.37 22.54 1.04 5.92 2.73 13.35 3.75 16.51 2.28 7.03 1.41 11.32-2.49 12.29-4.16 1.05-6.85-0.1-17.75-7.56-5.35-3.67-13.64-8.47-18.42-10.68-14.36-6.64-73.19-22.24-108.06-28.67-8.63-1.59-18.02-2.11-39.08-2.16-15.24-0.03-27.98 0.21-28.29 0.54-0.88 0.91 4 179.08 6.37 232.68 2.56 57.6 3.97 75.61 11.32 144.15 5.64 52.54 5.73 53.07 14.47 83.74 10.47 36.78 11.37 39.52 17.7 53.69 3.06 6.83 5.55 13.33 5.55 14.45 0 1.76-4.6 7.24-6.06 7.22-0.28 0-2.05-0.8-3.91-1.77z"/>
		<path id="path4" class="s0" d="m592.38 960.2c-1.87-0.98-7.7-5.57-12.95-10.2-12.14-10.72-16.61-13.51-32.09-19.99-23.88-10.01-25.22-10.24-62.03-10.53-36.2-0.28-36.36-0.32-36.28-7.91 0.02-2.21 1.12-12.37 2.45-22.56 3.16-24.38 6.55-65.14 8.51-102.29 0.66-12.5 1.46-25.15 1.79-28.11 1.84-16.74 8.81-171.7 11.3-251.23 0.67-21.38 1.5-47.76 1.84-58.62 0.34-10.85 0.14-20.48-0.45-21.4-2.96-4.6-72.63 5.14-131.7 18.42-41 9.22-41.86 9.49-59.24 18.59-8.55 4.47-17.9 8.75-20.77 9.51-4.77 1.25-5.46 1.14-8.07-1.32-4.1-3.85-3.58-7.05 2.75-16.84 6.9-10.67 11.22-20.77 15.49-36.3 2.83-10.27 3.29-14.18 3.3-28.08 0.01-17.94-0.92-21.69-8.39-33.85-4.07-6.63-4.17-7.05-2.33-9.87 1.06-1.61 2.18-2.94 2.48-2.94 0.31 0 5.18 1.34 10.83 2.98 7.49 2.17 15.52 3.32 29.63 4.24 10.64 0.69 22.58 1.74 26.53 2.33 3.94 0.58 12.02 1.41 17.94 1.83 5.92 0.42 18.42 1.53 27.78 2.47 10.97 1.1 31.05 1.71 56.53 1.71h39.51l-0.02-3.89c-0.03-7.98-2.3-70.21-3.06-83.89l-0.79-14.21-7.72 0.79c-10.21 1.04-50.63 11.23-71.6 18.04-9.19 2.99-24.96 9.42-35.05 14.31-20.36 9.85-23.2 10.22-23.91 3.08-0.44-4.49 0.12-6.06 9.44-26.44 3.79-8.28 7.74-17.93 8.78-21.46 2.51-8.44 2.47-27.73-0.08-44.09-2.65-17.03-2.75-25.23-0.31-26.79 1.37-0.88 5.12-0.2 13.76 2.51 6.52 2.04 14.29 4.24 17.25 4.88 9.3 2.02 48.94 6.17 66.09 6.92l16.45 0.73-0.01-6.47c-0.02-19.3-13.05-81.27-21.71-103.23-1.29-3.28-2.04-7.2-1.66-8.7 1.28-5.1 4.01-5.33 19.73-1.62 20.36 4.81 35.21 6.48 49.65 5.6 21.42-1.31 29.1-3.39 44.85-12.12 7.75-4.3 15.16-7.82 16.47-7.82 2.74 0 6.33 3.53 6.33 6.21 0 1.01-1.61 4.84-3.57 8.52-8.43 15.8-25.14 88.76-25.14 109.76v5.64l8.07-0.54c18.61-1.22 50.81-5.4 58.87-7.63 4.76-1.32 17.54-5.88 28.4-10.14 20.27-7.95 23.75-8.73 28.26-6.36 6.24 3.28 5.91 5.69-3.33 24.68-13.54 27.82-14.44 39.04-5.35 66.78 9.19 28.03 8.68 28.68-15.82 19.88-9.43-3.38-21.8-7.49-27.49-9.11-13.83-3.96-40.21-7.95-57.95-8.77l-14.46-0.66-1.54 48.32c-0.84 26.57-1.33 50.19-1.09 52.49 0.42 4.01 0.69 4.22 6.42 5.14 6.6 1.06 37.85 0.17 55.63-1.59 6.25-0.62 18.48-1.65 27.19-2.3 14.28-1.06 46.99-5.2 67.32-8.5 4.27-0.7 16.97-4.28 28.21-7.95 29.43-9.62 30.83-8.81 23.73 13.7-4.29 13.6-4.46 14.8-4.99 35.8-0.48 18.78-0.22 23.31 1.92 33.49 1.36 6.48 3.33 16.62 4.37 22.54 1.04 5.92 2.73 13.35 3.75 16.51 2.28 7.03 1.41 11.32-2.49 12.29-4.16 1.05-6.85-0.1-17.75-7.56-5.35-3.67-13.64-8.47-18.42-10.68-14.36-6.64-73.19-22.24-108.06-28.67-8.63-1.59-18.02-2.11-39.08-2.16-15.24-0.03-27.98 0.21-28.29 0.54-0.88 0.91 4 179.08 6.37 232.68 2.56 57.6 3.97 75.61 11.32 144.15 5.64 52.54 5.73 53.07 14.47 83.74 10.47 36.78 11.37 39.52 17.7 53.69 3.06 6.83 5.55 13.33 5.55 14.45 0 1.76-4.6 7.24-6.06 7.22-0.28 0-2.05-0.8-3.91-1.77z"/>
		<path id="path5" class="s0" d="m592.38 960.2c-1.87-0.98-7.7-5.57-12.95-10.2-12.14-10.72-16.61-13.51-32.09-19.99-23.88-10.01-25.22-10.24-62.03-10.53-36.2-0.28-36.36-0.32-36.28-7.91 0.02-2.21 1.12-12.37 2.45-22.56 3.16-24.38 6.55-65.14 8.51-102.29 0.66-12.5 1.46-25.15 1.79-28.11 1.84-16.74 8.81-171.7 11.3-251.23 0.67-21.38 1.5-47.76 1.84-58.62 0.34-10.85 0.14-20.48-0.45-21.4-2.84-4.4-72.35 5.09-126.93 17.34-45.22 10.14-46.68 10.59-63.73 19.52-8.7 4.55-18.18 8.9-21.05 9.66-4.77 1.25-5.46 1.14-8.07-1.32-4.1-3.85-3.58-7.05 2.75-16.84 6.9-10.67 11.22-20.77 15.49-36.3 2.83-10.27 3.29-14.18 3.3-28.08 0.01-17.94-0.92-21.69-8.39-33.85-4.07-6.63-4.17-7.05-2.33-9.87 1.06-1.61 2.18-2.94 2.48-2.94 0.31 0 5.18 1.34 10.83 2.98 7.49 2.17 15.52 3.32 29.63 4.24 10.64 0.69 22.58 1.74 26.53 2.33 3.94 0.58 12.02 1.41 17.94 1.83 5.92 0.42 18.42 1.53 27.78 2.47 10.97 1.1 31.05 1.71 56.53 1.71h39.51l-0.02-3.89c-0.03-7.98-2.3-70.21-3.06-83.89l-0.79-14.21-7.72 0.79c-10.21 1.04-50.63 11.23-71.6 18.04-9.19 2.99-24.96 9.42-35.05 14.31-20.36 9.85-23.2 10.22-23.91 3.08-0.44-4.49 0.12-6.06 9.44-26.44 3.79-8.28 7.74-17.93 8.78-21.46 2.51-8.44 2.47-27.73-0.08-44.09-2.65-17.03-2.75-25.23-0.31-26.79 1.37-0.88 5.12-0.2 13.76 2.51 6.52 2.04 14.29 4.24 17.25 4.88 9.3 2.02 48.94 6.17 66.09 6.92l16.45 0.73-0.01-6.47c-0.02-19.3-13.05-81.27-21.71-103.23-1.29-3.28-2.04-7.2-1.66-8.7 1.28-5.1 4.01-5.33 19.73-1.62 20.36 4.81 35.21 6.48 49.65 5.6 21.42-1.31 29.1-3.39 44.85-12.12 7.75-4.3 15.16-7.82 16.47-7.82 2.74 0 6.33 3.53 6.33 6.21 0 1.01-1.61 4.84-3.57 8.52-8.43 15.8-25.14 88.76-25.14 109.76v5.64l8.07-0.54c18.61-1.22 50.81-5.4 58.87-7.63 4.76-1.32 17.54-5.88 28.4-10.14 20.27-7.95 23.75-8.73 28.26-6.36 6.24 3.28 5.91 5.69-3.33 24.68-13.54 27.82-14.44 39.04-5.35 66.78 9.19 28.03 8.68 28.68-15.82 19.88-9.43-3.38-21.8-7.49-27.49-9.11-13.83-3.96-40.21-7.95-57.95-8.77l-14.46-0.66-1.54 48.32c-0.84 26.57-1.33 50.19-1.09 52.49 0.42 4.01 0.69 4.22 6.42 5.14 6.6 1.06 37.85 0.17 55.63-1.59 6.25-0.62 18.48-1.65 27.19-2.3 14.28-1.06 46.99-5.2 67.32-8.5 4.27-0.7 16.97-4.28 28.21-7.95 29.43-9.62 30.83-8.81 23.73 13.7-4.29 13.6-4.46 14.8-4.99 35.8-0.48 18.78-0.22 23.31 1.92 33.49 1.36 6.48 3.33 16.62 4.37 22.54 1.04 5.92 2.73 13.35 3.75 16.51 2.28 7.03 1.41 11.32-2.49 12.29-4.16 1.05-6.85-0.1-17.75-7.56-5.35-3.67-13.64-8.47-18.42-10.68-14.36-6.64-73.19-22.24-108.06-28.67-8.63-1.59-18.02-2.11-39.08-2.16-15.24-0.03-27.98 0.21-28.29 0.54-0.88 0.91 4 179.08 6.37 232.68 2.56 57.6 3.97 75.61 11.32 144.15 5.64 52.54 5.73 53.07 14.47 83.74 10.47 36.78 11.37 39.52 17.7 53.69 3.06 6.83 5.55 13.33 5.55 14.45 0 1.76-4.6 7.24-6.06 7.22-0.28 0-2.05-0.8-3.91-1.77z"/>
		<path id="path6" class="s0" d="m592.38 960.2c-1.87-0.98-7.7-5.57-12.95-10.2-12.14-10.72-16.61-13.51-32.09-19.99-23.88-10.01-25.22-10.24-62.03-10.53-36.2-0.28-36.36-0.32-36.28-7.91 0.02-2.21 1.12-12.37 2.45-22.56 3.16-24.38 6.55-65.14 8.51-102.29 0.66-12.5 1.46-25.15 1.79-28.11 1.84-16.74 8.81-171.7 11.3-251.23 0.67-21.38 1.5-47.76 1.84-58.62 0.34-10.85 0.14-20.48-0.45-21.4-2.96-4.6-72.63 5.14-131.7 18.42-41 9.22-41.86 9.49-59.24 18.59-8.55 4.47-17.9 8.75-20.77 9.51-4.77 1.25-5.46 1.14-8.07-1.32-4.1-3.85-3.58-7.05 2.75-16.84 6.9-10.67 11.22-20.77 15.49-36.3 2.83-10.27 3.29-14.18 3.3-28.08 0.01-17.94-0.92-21.69-8.39-33.85-4.07-6.63-4.17-7.05-2.33-9.87 1.06-1.61 2.18-2.94 2.48-2.94 0.31 0 5.18 1.34 10.83 2.98 7.49 2.17 15.52 3.32 29.63 4.24 10.64 0.69 22.58 1.74 26.53 2.33 3.94 0.58 12.02 1.41 17.94 1.83 5.92 0.42 18.42 1.53 27.78 2.47 10.97 1.1 31.05 1.71 56.53 1.71h39.51l-0.02-3.89c-0.03-7.98-2.3-70.21-3.06-83.89l-0.79-14.21-7.72 0.79c-10.21 1.04-50.63 11.23-71.6 18.04-9.19 2.99-24.96 9.42-35.05 14.31-20.36 9.85-23.2 10.22-23.91 3.08-0.44-4.49 0.12-6.06 9.44-26.44 3.79-8.28 7.74-17.93 8.78-21.46 2.51-8.44 2.47-27.73-0.08-44.09-2.65-17.03-2.75-25.23-0.31-26.79 1.37-0.88 5.12-0.2 13.76 2.51 6.52 2.04 14.29 4.24 17.25 4.88 9.3 2.02 48.94 6.17 66.09 6.92l16.45 0.73-0.01-6.47c-0.02-19.3-13.05-81.27-21.71-103.23-1.29-3.28-2.04-7.2-1.66-8.7 1.28-5.1 4.01-5.33 19.73-1.62 20.36 4.81 35.21 6.48 49.65 5.6 21.42-1.31 29.1-3.39 44.85-12.12 7.75-4.3 15.16-7.82 16.47-7.82 2.74 0 6.33 3.53 6.33 6.21 0 1.01-1.61 4.84-3.57 8.52-8.43 15.8-25.14 88.76-25.14 109.76v5.64l8.07-0.54c18.61-1.22 50.81-5.4 58.87-7.63 4.76-1.32 17.54-5.88 28.4-10.14 20.27-7.95 23.75-8.73 28.26-6.36 6.24 3.28 5.91 5.69-3.33 24.68-13.54 27.82-14.44 39.04-5.35 66.78 9.19 28.03 8.68 28.68-15.82 19.88-9.43-3.38-21.8-7.49-27.49-9.11-13.83-3.96-40.21-7.95-57.95-8.77l-14.46-0.66-1.54 48.32c-0.84 26.57-1.33 50.19-1.09 52.49 0.42 4.01 0.69 4.22 6.42 5.14 6.6 1.06 37.85 0.17 55.63-1.59 6.25-0.62 18.48-1.65 27.19-2.3 14.28-1.06 46.99-5.2 67.32-8.5 4.27-0.7 16.97-4.28 28.21-7.95 29.43-9.62 30.83-8.81 23.73 13.7-4.29 13.6-4.46 14.8-4.99 35.8-0.48 18.78-0.22 23.31 1.92 33.49 1.36 6.48 3.33 16.62 4.37 22.54 1.04 5.92 2.73 13.35 3.75 16.51 2.28 7.03 1.41 11.32-2.49 12.29-4.16 1.05-6.85-0.1-17.75-7.56-5.35-3.67-13.64-8.47-18.42-10.68-14.36-6.64-73.19-22.24-108.06-28.67-8.63-1.59-18.02-2.11-39.08-2.16-15.24-0.03-27.98 0.21-28.29 0.54-0.88 0.91 4 179.08 6.37 232.68 2.56 57.6 3.97 75.61 11.32 144.15 5.64 52.54 5.73 53.07 14.47 83.74 10.47 36.78 11.37 39.52 17.7 53.69 3.06 6.83 5.55 13.33 5.55 14.45 0 1.76-4.6 7.24-6.06 7.22-0.28 0-2.05-0.8-3.91-1.77z"/>
		<path id="path7" class="s1" d="m592.38 960.2c-1.87-0.98-7.7-5.57-12.95-10.2-12.14-10.72-16.61-13.51-32.09-19.99-23.88-10.01-25.22-10.24-62.03-10.53-36.2-0.28-36.36-0.32-36.28-7.91 0.02-2.21 1.12-12.37 2.45-22.56 3.16-24.38 6.55-65.14 8.51-102.29 0.66-12.5 1.46-25.15 1.79-28.11 1.84-16.74 8.81-171.7 11.3-251.23 0.67-21.38 1.5-47.76 1.84-58.62 0.34-10.85 0.14-20.48-0.45-21.4-2.84-4.4-72.35 5.09-126.93 17.34-45.22 10.14-46.68 10.59-63.73 19.52-8.7 4.55-18.18 8.9-21.05 9.66-4.77 1.25-5.46 1.14-8.07-1.32-4.1-3.85-3.58-7.05 2.75-16.84 6.9-10.67 11.22-20.77 15.49-36.3 2.83-10.27 3.29-14.18 3.3-28.08 0.01-17.94-0.92-21.69-8.39-33.85-4.07-6.63-4.17-7.05-2.33-9.87 1.06-1.61 2.18-2.94 2.48-2.94 0.31 0 5.18 1.34 10.83 2.98 7.49 2.17 15.52 3.32 29.63 4.24 10.64 0.69 22.58 1.74 26.53 2.33 3.94 0.58 12.02 1.41 17.94 1.83 5.92 0.42 18.42 1.53 27.78 2.47 10.97 1.1 31.05 1.71 56.53 1.71h39.51l-0.02-3.89c-0.03-7.98-2.3-70.21-3.06-83.89l-0.79-14.21-7.72 0.79c-10.21 1.04-50.63 11.23-71.6 18.04-9.19 2.99-24.96 9.42-35.05 14.31-20.36 9.85-23.2 10.22-23.91 3.08-0.44-4.49 0.12-6.06 9.44-26.44 3.79-8.28 7.74-17.93 8.78-21.46 2.51-8.44 2.47-27.73-0.08-44.09-2.65-17.03-2.75-25.23-0.31-26.79 1.37-0.88 5.12-0.2 13.76 2.51 6.52 2.04 14.29 4.24 17.25 4.88 9.3 2.02 48.94 6.17 66.09 6.92l16.45 0.73-0.01-6.47c-0.02-19.3-13.05-81.27-21.71-103.23-1.29-3.28-2.04-7.2-1.66-8.7 1.28-5.1 4.01-5.33 19.73-1.62 20.36 4.81 35.21 6.48 49.65 5.6 21.42-1.31 29.1-3.39 44.85-12.12 7.75-4.3 15.16-7.82 16.47-7.82 2.74 0 6.33 3.53 6.33 6.21 0 1.01-1.61 4.84-3.57 8.52-8.43 15.8-25.14 88.76-25.14 109.76v5.64l8.07-0.54c18.61-1.22 50.81-5.4 58.87-7.63 4.76-1.32 17.54-5.88 28.4-10.14 20.27-7.95 23.75-8.73 28.26-6.36 6.24 3.28 5.91 5.69-3.33 24.68-13.54 27.82-14.44 39.04-5.35 66.78 9.19 28.03 8.68 28.68-15.82 19.88-9.43-3.38-21.8-7.49-27.49-9.11-13.83-3.96-40.21-7.95-57.95-8.77l-14.46-0.66-1.54 48.32c-0.84 26.57-1.33 50.19-1.09 52.49 0.42 4.01 0.69 4.22 6.42 5.14 6.6 1.06 37.85 0.17 55.63-1.59 6.25-0.62 18.48-1.65 27.19-2.3 14.28-1.06 46.99-5.2 67.32-8.5 4.27-0.7 16.97-4.28 28.21-7.95 29.43-9.62 30.83-8.81 23.73 13.7-4.29 13.6-4.46 14.8-4.99 35.8-0.48 18.78-0.22 23.31 1.92 33.49 1.36 6.48 3.33 16.62 4.37 22.54 1.04 5.92 2.73 13.35 3.75 16.51 2.28 7.03 1.41 11.32-2.49 12.29-4.16 1.05-6.85-0.1-17.75-7.56-5.35-3.67-13.64-8.47-18.42-10.68-14.36-6.64-73.19-22.24-108.06-28.67-8.63-1.59-18.02-2.11-39.08-2.16-15.24-0.03-27.98 0.21-28.29 0.54-0.88 0.91 4 179.08 6.37 232.68 2.56 57.6 3.97 75.61 11.32 144.15 5.64 52.54 5.73 53.07 14.47 83.74 10.47 36.78 11.37 39.52 17.7 53.69 3.06 6.83 5.55 13.33 5.55 14.45 0 1.76-4.6 7.24-6.06 7.22-0.28 0-2.05-0.8-3.91-1.77z"/>
	</g>
</svg>